# xmcd
#
# Track frame offsets:
#	150
#	18260
#	39415
#	54844
#	73398
#	91490
#	107420
#	124314
#	142545
#	157335
#	178938
#	193607
#	213115
#	235090
#	249302
#
# Disc length: 3553 seconds
#
# Revision: 1
# Processed by: cddbd v1.5.1PL0 Copyright (c) Steve Scherf et al.
# Submitted via: audiograbber 1.82.02
#
DISCID=c80ddf0f
DTITLE=Various Artist - ChartBusters Female Country Vol 2
DYEAR=1900
DGENRE=Karaoke
TTITLE0=SheDaisy - Mine all mine
TTITLE1=Tammy Cochran - Life happened
TTITLE2=Carolyn Dawn Johnson - One day closer to you
TTITLE3=Kellie Coffee - At the end of the day
TTITLE4=Faith Hill - Cry
TTITLE5=Terri Clark - I just want to be mad
TTITLE6=LeAnn Rimes - Life goes on
TTITLE7=Dixie Chicks - Landslide
TTITLE8=Cyndi Thomson - I always liked that best
TTITLE9=Sara Evans - Saints and Angels
TTITLE10=Jamie O'Neal - Frantic
TTITLE11=Jamie O'Neal - Shiver
TTITLE12=Dixie Chicks - The traveling soldier
TTITLE13=Chalee Tennison - Lonesome road
TTITLE14=Deana Carter - There's no limit
EXTD=
EXTT0=
EXTT1=
EXTT2=
EXTT3=
EXTT4=
EXTT5=
EXTT6=
EXTT7=
EXTT8=
EXTT9=
EXTT10=
EXTT11=
EXTT12=
EXTT13=
EXTT14=
PLAYORDER=
